<svg width="1080" height="174" viewBox="0 0 1080 174" fill="none" xmlns="http://www.w3.org/2000/svg">
<path d="M231.527 86.9999C231.527 94.9642 228.297 102.173 223.067 107.387C217.837 112.606 210.614 115.835 202.634 115.835C194.654 115.835 187.43 119.059 182.206 124.278C176.977 129.498 173.741 136.707 173.741 144.671C173.741 152.635 170.51 159.844 165.281 165.058C160.051 170.277 152.828 173.507 144.847 173.507C136.867 173.507 129.644 170.277 124.42 165.058C119.19 159.844 115.954 152.635 115.954 144.671C115.954 136.707 119.19 129.498 124.42 124.278C129.644 119.059 136.867 115.835 144.847 115.835C152.828 115.835 160.051 112.606 165.281 107.387C170.51 102.173 173.741 94.9642 173.741 86.9999C173.741 71.0711 160.808 58.1643 144.847 58.1643C136.867 58.1643 129.644 54.9347 124.42 49.7155C119.19 44.502 115.954 37.2931 115.954 29.3287C115.954 21.3643 119.19 14.1555 124.42 8.93622C129.644 3.71698 136.867 0.493164 144.847 0.493164C160.808 0.493164 173.741 13.4 173.741 29.3287C173.741 37.2931 176.977 44.502 182.206 49.7155C187.43 54.9347 194.654 58.1643 202.634 58.1643C218.594 58.1643 231.527 71.0711 231.527 86.9999Z" fill="#F44250"/>
<path d="M115.954 86.9996C115.954 71.0742 103.018 58.1641 87.0608 58.1641C71.1035 58.1641 58.1676 71.0742 58.1676 86.9996C58.1676 102.925 71.1035 115.835 87.0608 115.835C103.018 115.835 115.954 102.925 115.954 86.9996Z" fill="#121212"/>
<path d="M58.1676 144.671C58.1676 128.745 45.2316 115.835 29.2743 115.835C13.317 115.835 0.381104 128.745 0.381104 144.671C0.381104 160.596 13.317 173.506 29.2743 173.506C45.2316 173.506 58.1676 160.596 58.1676 144.671Z" fill="#121212"/>
<path d="M289.313 144.671C289.313 128.745 276.378 115.835 260.42 115.835C244.463 115.835 231.527 128.745 231.527 144.671C231.527 160.596 244.463 173.506 260.42 173.506C276.378 173.506 289.313 160.596 289.313 144.671Z" fill="#121212"/>
</svg>
